<svg width="87" height="87" viewBox="0 0 87 87" fill="none" xmlns="http://www.w3.org/2000/svg">
<g clip-path="url(#clip0_90_12)">
<rect width="87" height="87" rx="2" fill="white"/>
<rect x="19.8477" y="18.3618" width="52.4414" height="52.4414" rx="3" transform="rotate(-3.02547 19.8477 18.3618)" fill="#00C2CB"/>
<path d="M24.1307 13.2372L68.7121 26.2491C68.9771 26.3265 69.1293 26.6041 69.0519 26.8692L56.0401 71.4505C55.9627 71.7156 55.6851 71.8677 55.42 71.7904L10.8387 58.7785C10.5736 58.7011 10.4214 58.4235 10.4988 58.1585L23.5107 13.5771C23.588 13.312 23.8656 13.1599 24.1307 13.2372Z" fill="white" stroke="#00C2CB" stroke-width="5"/>
<path d="M33.32 38.952C33.368 37.88 33.64 36.984 34.136 36.264C34.648 35.528 35.328 34.976 36.176 34.608C37.04 34.224 38.032 34.032 39.152 34.032C40.32 34.032 41.312 34.248 42.128 34.68C42.944 35.112 43.568 35.688 44 36.408C44.432 37.128 44.648 37.92 44.648 38.784C44.648 39.44 44.512 40.016 44.24 40.512C43.984 40.992 43.648 41.392 43.232 41.712C42.816 42.016 42.4 42.248 41.984 42.408V42.504C42.576 42.68 43.096 42.936 43.544 43.272C43.992 43.608 44.336 44.032 44.576 44.544C44.832 45.056 44.96 45.68 44.96 46.416C44.96 47.36 44.736 48.192 44.288 48.912C43.84 49.616 43.192 50.168 42.344 50.568C41.512 50.968 40.488 51.168 39.272 51.168C38.072 51.168 37.016 50.992 36.104 50.64C35.192 50.288 34.472 49.728 33.944 48.96C33.416 48.176 33.128 47.144 33.08 45.864H36.248C36.28 46.728 36.528 47.368 36.992 47.784C37.456 48.2 38.192 48.408 39.2 48.408C39.776 48.408 40.248 48.32 40.616 48.144C40.984 47.968 41.256 47.712 41.432 47.376C41.608 47.04 41.696 46.632 41.696 46.152C41.696 45.224 41.392 44.608 40.784 44.304C40.192 44 39.256 43.848 37.976 43.848H37.304V41.256H38C38.672 41.24 39.264 41.176 39.776 41.064C40.288 40.936 40.68 40.728 40.952 40.44C41.24 40.136 41.384 39.72 41.384 39.192C41.384 38.504 41.192 37.936 40.808 37.488C40.424 37.024 39.84 36.792 39.056 36.792C38.48 36.792 38.016 36.896 37.664 37.104C37.312 37.312 37.032 37.576 36.824 37.896C36.632 38.216 36.52 38.568 36.488 38.952H33.32Z" fill="#00C2CB"/>
</g>
<rect x="0.5" y="0.5" width="86" height="86" rx="1.5" stroke="white" stroke-opacity="0.1"/>
<defs>
<clipPath id="clip0_90_12">
<rect width="87" height="87" rx="2" fill="white"/>
</clipPath>
</defs>
</svg>
