<svg width="87" height="87" viewBox="0 0 87 87" fill="none" xmlns="http://www.w3.org/2000/svg">
<g clip-path="url(#clip0_90_5)">
<rect width="87" height="87" rx="2" fill="white"/>
<rect x="19.8477" y="18.3618" width="52.4414" height="52.4414" rx="3" transform="rotate(-3.02547 19.8477 18.3618)" fill="#00C2CB"/>
<path d="M24.1307 13.2372L68.7121 26.2491C68.9771 26.3265 69.1293 26.6041 69.0519 26.8692L56.0401 71.4505C55.9627 71.7156 55.6851 71.8677 55.42 71.7904L10.8387 58.7785C10.5736 58.7011 10.4214 58.4235 10.4988 58.1585L23.5107 13.5771C23.588 13.312 23.8656 13.1599 24.1307 13.2372Z" fill="white" stroke="#00C2CB" stroke-width="5"/>
<path d="M33.128 48.648L37.808 44.256C38.672 43.44 39.352 42.752 39.848 42.192C40.36 41.632 40.72 41.12 40.928 40.656C41.152 40.176 41.264 39.68 41.264 39.168C41.264 38.464 41.072 37.896 40.688 37.464C40.32 37.016 39.696 36.792 38.816 36.792C38.288 36.792 37.832 36.92 37.448 37.176C37.064 37.416 36.768 37.768 36.56 38.232C36.352 38.696 36.24 39.256 36.224 39.912H33.104C33.136 38.552 33.416 37.44 33.944 36.576C34.472 35.712 35.168 35.072 36.032 34.656C36.896 34.24 37.856 34.032 38.912 34.032C40.144 34.032 41.184 34.256 42.032 34.704C42.88 35.136 43.512 35.728 43.928 36.48C44.36 37.232 44.576 38.096 44.576 39.072C44.576 39.792 44.448 40.48 44.192 41.136C43.952 41.792 43.536 42.488 42.944 43.224C42.352 43.96 41.528 44.808 40.472 45.768L37.688 48.288H44.96V51H33.128V48.648Z" fill="#00C2CB"/>
</g>
<rect x="0.5" y="0.5" width="86" height="86" rx="1.5" stroke="white" stroke-opacity="0.1"/>
<defs>
<clipPath id="clip0_90_5">
<rect width="87" height="87" rx="2" fill="white"/>
</clipPath>
</defs>
</svg>
